<svg width="122" height="119" viewBox="0 0 122 119" fill="none" xmlns="http://www.w3.org/2000/svg">
<path d="M112.57 4.2395V20.9757C114.881 23.5784 118.249 25.2175 122 25.2175V0C118.249 0 114.881 1.63914 112.57 4.2395Z" fill="#8A1818"/>
<path d="M33.2433 43.37C32.2931 45.0939 32.9176 47.2594 34.6437 48.2118L75.9889 71.012C77.7128 71.9599 79.8807 71.3332 80.8331 69.6092L82.4835 66.6138L34.8937 40.3748L33.2433 43.37Z" fill="#8A1818"/>
<path d="M75.2448 37.2096L76.6187 34.7207C77.3233 33.445 76.8594 31.8392 75.5815 31.1343L68.5853 27.2759C67.3072 26.571 65.7017 27.0352 64.9992 28.3129L63.6253 30.8043C53.7073 28.1122 43.0397 31.1277 36.0054 38.5923L83.3988 64.7246C85.9546 54.7909 82.8143 44.1614 75.2448 37.2096Z" fill="#8A1818"/>
<path d="M0.375949 79.4451C-0.429442 80.9105 0.101449 82.7505 1.56473 83.5578C3.02992 84.3651 4.86993 83.8321 5.67747 82.369C6.48476 80.906 5.63053 76.1844 5.63053 76.1844C5.63053 76.1844 1.18325 77.982 0.375949 79.4451Z" fill="#8A1818"/>
<path d="M15.9226 88.0182C15.1153 89.4813 15.6484 91.3236 17.1114 92.1286C18.5769 92.9359 20.4145 92.4052 21.2218 90.94C22.0291 89.477 21.1772 84.7576 21.1772 84.7576C21.1772 84.7576 16.7302 86.5528 15.9226 88.0182Z" fill="#8A1818"/>
<path d="M31.4679 96.5891C30.663 98.0524 31.196 99.8945 32.6588 100.702C34.1219 101.509 35.9643 100.978 36.7716 99.513C37.5789 98.05 36.7225 93.3308 36.7225 93.3308C36.7227 93.3287 32.2754 95.1263 31.4679 96.5891Z" fill="#8A1818"/>
<path d="M47.0179 105.163C46.2106 106.626 46.7413 108.468 48.2043 109.275C49.6676 110.083 51.5098 109.55 52.3171 108.084C53.1244 106.621 52.2704 101.902 52.2704 101.902C52.2704 101.902 47.8252 103.699 47.0179 105.163Z" fill="#8A1818"/>
<path d="M62.563 113.736C61.7552 115.199 62.2864 117.041 63.7515 117.846C65.2146 118.654 67.0567 118.121 67.864 116.658C68.6694 115.194 67.8173 110.475 67.8173 110.475C67.8173 110.475 63.3703 112.273 62.563 113.736Z" fill="#8A1818"/>
<path d="M17.0647 73.8308C18.5278 74.6381 20.3699 74.105 21.1775 72.6422C21.9848 71.1768 21.1308 66.4576 21.1308 66.4576C21.1308 66.4576 16.6835 68.2552 15.8762 69.7183C15.0708 71.1835 15.6017 73.0235 17.0647 73.8308Z" fill="#8A1818"/>
<path d="M32.6121 82.4049C34.0752 83.2122 35.9152 82.6791 36.7225 81.2139C37.5298 79.7509 36.6779 75.0317 36.6758 75.0317C36.6758 75.0317 32.2309 76.8293 31.4233 78.2924C30.616 79.7554 31.1469 81.5976 32.6121 82.4049Z" fill="#8A1818"/>
<path d="M48.1598 90.975C49.6228 91.7825 51.4628 91.2516 52.2701 89.7864C53.0774 88.3234 52.2234 83.604 52.2234 83.604C52.2234 83.604 47.7761 85.3992 46.9688 86.8646C46.1613 88.3279 46.6946 90.1677 48.1598 90.975Z" fill="#8A1818"/>
<path d="M63.7044 99.5491C65.1674 100.354 67.0096 99.8236 67.8169 98.3603C68.6244 96.8973 67.768 92.1781 67.768 92.1781C67.768 92.1781 63.3231 93.9733 62.5156 95.4366C61.708 96.8996 62.2411 98.7418 63.7044 99.5491Z" fill="#8A1818"/>
<path d="M35.9064 64.3101C36.7137 62.8468 35.8616 58.1277 35.8616 58.1277C35.8616 58.1277 31.4145 59.9234 30.6072 61.3886C29.7999 62.854 30.3308 64.6938 31.7936 65.4989C33.2591 66.3062 35.0991 65.7756 35.9064 64.3101Z" fill="#8A1818"/>
<path d="M51.4538 72.8834C52.2611 71.4201 51.4071 66.7009 51.4071 66.7009C51.4071 66.7009 46.9599 68.4964 46.1526 69.9618C45.3453 71.4249 45.8783 73.2649 47.3435 74.0722C48.8063 74.8795 50.6487 74.3486 51.4538 72.8834Z" fill="#8A1818"/>
<path d="M67.0007 81.4567C67.808 79.9913 66.9516 75.2721 66.9516 75.2721C66.9516 75.2721 62.5046 77.0697 61.6971 78.5327C60.8919 79.9958 61.4249 81.8382 62.888 82.6455C64.3513 83.4528 66.1934 82.9197 67.0007 81.4567Z" fill="#8A1818"/>
<path d="M86.5567 11.5455C80.227 14.2243 74.8544 18.6871 71.0562 24.3095C70.9114 24.5238 70.7732 24.7423 70.6326 24.961L76.7614 28.3377C76.7614 28.3377 76.7635 28.3401 76.7657 28.342C78.8085 25.2844 81.4315 22.6413 84.4781 20.5852C88.9921 17.5364 94.4095 15.7631 100.273 15.7588H109.488V8.77576H100.273C95.4152 8.77576 90.7719 9.76153 86.5567 11.5455Z" fill="#8A1818"/>
</svg>
