<svg width="94" height="76" viewBox="0 0 94 76" fill="none" xmlns="http://www.w3.org/2000/svg">
<path d="M9.40005 0C6.29364 0 3.76005 2.56055 3.76005 5.7V31.9438C6.19818 29.8062 9.28255 28.077 13.16 26.7188V19C13.16 13.9457 21.7008 13.3 29.14 13.3C36.5792 13.3 45.12 13.9457 45.12 19V22.8C45.7516 22.7926 46.3538 22.8 47 22.8C47.6463 22.8 48.2484 22.7926 48.88 22.8V19C48.88 13.9457 57.4208 13.3 64.86 13.3C72.2992 13.3 80.84 13.9457 80.84 19V26.6594C84.7101 28.0102 87.7798 29.7766 90.24 31.9438V5.7C90.24 2.56055 87.7064 0 84.6 0H9.40005ZM47 26.6C11.1038 26.6 -0.029317 33.3094 5.7946e-05 51.3H93.9999C94.0293 33.1906 82.8962 26.6 47 26.6ZM5.7946e-05 55.1V76H13.16V68.4C13.16 65.6687 14.2175 64.6 16.92 64.6H77.08C79.7825 64.6 80.84 65.6687 80.84 68.4V76H93.9999V55.1H5.7946e-05Z" fill="#8A1818"/>
</svg>
