<svg width="72" height="72" viewBox="0 0 72 72" fill="none" xmlns="http://www.w3.org/2000/svg">
<path d="M58.6199 15.2398C55.612 12.2531 52.0378 9.89725 48.1071 8.31054C44.1764 6.72384 39.9683 5.93823 35.7299 5.99982C27.7734 5.97993 20.1349 9.12156 14.4947 14.7336C8.85455 20.3456 5.67477 27.9683 5.65488 35.9248C5.63499 43.8813 8.77662 51.5198 14.3886 57.16C20.0007 62.8001 27.6234 65.9799 35.5799 65.9998C37.2944 66.029 38.97 65.488 40.3437 64.4618C41.7175 63.4355 42.7115 61.9822 43.1699 60.3298C43.4621 59.1366 43.459 57.8901 43.1611 56.6983C42.8631 55.5065 42.2792 54.4052 41.4599 53.4898C41.2704 53.2742 41.1468 53.0088 41.1037 52.725C41.0606 52.4413 41.0998 52.1511 41.2167 51.889C41.3335 51.6268 41.5231 51.4037 41.763 51.2461C42.0028 51.0885 42.2829 51.003 42.5699 50.9998H47.5199C52.1787 51.0216 56.6733 49.2801 60.1012 46.1249C63.529 42.9697 65.6363 38.6345 65.9999 33.9898C66.1115 30.5267 65.5145 27.0772 64.2454 23.853C62.9764 20.6288 61.0621 17.6978 58.6199 15.2398ZM20.5199 44.2198C19.7833 44.7204 18.9147 44.9912 18.0242 44.9979C17.1336 45.0046 16.2611 44.7468 15.5171 44.2573C14.7731 43.7678 14.191 43.0685 13.8447 42.2481C13.4983 41.4276 13.4032 40.5228 13.5714 39.6482C13.7396 38.7736 14.1635 37.9686 14.7895 37.3351C15.4154 36.7016 16.2153 36.2681 17.0878 36.0895C17.9603 35.9108 18.8662 35.9951 19.6908 36.3316C20.5153 36.6681 21.2215 37.2417 21.7199 37.9798C22.0538 38.4673 22.2878 39.0162 22.4083 39.5947C22.5288 40.1732 22.5333 40.7699 22.4217 41.3502C22.3102 41.9305 22.0846 42.4829 21.7582 42.9754C21.4317 43.468 21.0108 43.891 20.5199 44.2198ZM24.8999 27.7498C24.473 28.5404 23.8193 29.1851 23.0229 29.6009C22.2265 30.0167 21.3238 30.1846 20.4312 30.083C19.5385 29.9814 18.6967 29.6148 18.0141 29.0307C17.3316 28.4465 16.8395 27.6713 16.6013 26.8051C16.363 25.9388 16.3896 25.021 16.6774 24.17C16.9653 23.3189 17.5014 22.5735 18.2165 22.0297C18.9317 21.4859 19.7933 21.1687 20.6903 21.1188C21.5874 21.0689 22.4788 21.2887 23.2499 21.7498C24.2448 22.3448 24.9717 23.3009 25.2791 24.4187C25.5865 25.5364 25.4507 26.7297 24.8999 27.7498ZM32.9999 20.9998C32.1099 20.9998 31.2398 20.7359 30.4998 20.2414C29.7598 19.747 29.183 19.0442 28.8424 18.2219C28.5018 17.3996 28.4127 16.4948 28.5863 15.6219C28.76 14.749 29.1886 13.9472 29.8179 13.3178C30.4472 12.6885 31.2491 12.2599 32.122 12.0863C32.9949 11.9127 33.8997 12.0018 34.722 12.3424C35.5442 12.683 36.247 13.2597 36.7415 13.9998C37.236 14.7398 37.4999 15.6098 37.4999 16.4998C37.4999 17.6933 37.0258 18.8379 36.1819 19.6818C35.3379 20.5257 34.1934 20.9998 32.9999 20.9998ZM50.2499 23.3998C49.4788 23.861 48.5874 24.0807 47.6903 24.0308C46.7933 23.981 45.9317 23.6637 45.2165 23.1199C44.5014 22.5761 43.9653 21.8307 43.6774 20.9797C43.3896 20.1286 43.363 19.2108 43.6013 18.3446C43.8395 17.4783 44.3316 16.7032 45.0141 16.119C45.6967 15.5348 46.5385 15.1683 47.4312 15.0667C48.3238 14.965 49.2265 15.1329 50.0229 15.5488C50.8193 15.9646 51.473 16.6093 51.8999 17.3998C52.4507 18.4199 52.5865 19.6132 52.2791 20.731C51.9717 21.8488 51.2448 22.8048 50.2499 23.3998Z" fill="#8A1818"/>
</svg>
