<svg width="54" height="53" viewBox="0 0 54 53" fill="none" xmlns="http://www.w3.org/2000/svg">
<path fill-rule="evenodd" clip-rule="evenodd" d="M51.8268 6.04083L46.9384 1.16597C45.5898 -0.180974 43.4003 -0.180974 42.05 1.16597L34.7174 10.9156C33.5981 12.5649 33.3688 14.4435 34.7174 15.7904L37.7102 18.7748C35.4919 21.7472 32.8286 24.988 29.8307 27.9774C26.4404 31.3575 22.6697 34.4302 19.2794 36.9542L16.3868 34.0718C15.0381 32.7249 13.1544 32.9525 11.4983 34.0718L1.72154 41.384C0.082448 42.5136 0.3712 44.9119 1.72154 46.2589L6.60993 51.132C9.31061 53.8259 12.8215 52.963 16.3868 51.132C16.3868 51.132 27.1776 45.092 36.4159 35.8791C45.1057 27.2131 51.8268 15.7904 51.8268 15.7904C53.2281 11.9466 54.5275 8.73301 51.8268 6.04083Z" fill="#8A1818"/>
</svg>
