<svg width="160" height="53" viewBox="0 0 160 53" fill="none" xmlns="http://www.w3.org/2000/svg">
<rect width="160" height="53" rx="10" fill="#FFF5BE"/>
<path d="M33.53 33V20.22H35.15V31.56H42.278V33H33.53ZM47.8071 33.18C47.0991 33.18 46.4511 33.054 45.8631 32.802C45.2871 32.538 44.7831 32.184 44.3511 31.74C43.9311 31.284 43.6011 30.762 43.3611 30.174C43.1331 29.586 43.0191 28.962 43.0191 28.302C43.0191 27.414 43.2231 26.604 43.6311 25.872C44.0391 25.14 44.6031 24.552 45.3231 24.108C46.0551 23.664 46.8891 23.442 47.8251 23.442C48.7731 23.442 49.5951 23.67 50.2911 24.126C50.9991 24.57 51.5451 25.158 51.9291 25.89C52.3251 26.61 52.5231 27.39 52.5231 28.23C52.5231 28.35 52.5171 28.47 52.5051 28.59C52.5051 28.698 52.4991 28.782 52.4871 28.842H44.6931C44.7411 29.454 44.9091 30 45.1971 30.48C45.4971 30.948 45.8811 31.32 46.3491 31.596C46.8171 31.86 47.3211 31.992 47.8611 31.992C48.4371 31.992 48.9771 31.848 49.4811 31.56C49.9971 31.272 50.3511 30.894 50.5431 30.426L51.9111 30.804C51.7071 31.26 51.4011 31.668 50.9931 32.028C50.5971 32.388 50.1231 32.67 49.5711 32.874C49.0311 33.078 48.4431 33.18 47.8071 33.18ZM44.6391 27.744H51.0471C50.9991 27.132 50.8251 26.592 50.5251 26.124C50.2251 25.656 49.8411 25.29 49.3731 25.026C48.9051 24.762 48.3891 24.63 47.8251 24.63C47.2731 24.63 46.7631 24.762 46.2951 25.026C45.8271 25.29 45.4431 25.656 45.1431 26.124C44.8551 26.592 44.6871 27.132 44.6391 27.744ZM53.5459 30.282C53.5459 29.682 53.7139 29.166 54.0499 28.734C54.3979 28.29 54.8719 27.948 55.4719 27.708C56.0719 27.468 56.7679 27.348 57.5599 27.348C57.9799 27.348 58.4239 27.384 58.8919 27.456C59.3599 27.516 59.7739 27.612 60.1339 27.744V27.06C60.1339 26.34 59.9179 25.776 59.4859 25.368C59.0539 24.948 58.4419 24.738 57.6499 24.738C57.1339 24.738 56.6359 24.834 56.1559 25.026C55.6879 25.206 55.1899 25.47 54.6619 25.818L54.0859 24.702C54.6979 24.282 55.3099 23.97 55.9219 23.766C56.5339 23.55 57.1699 23.442 57.8299 23.442C59.0299 23.442 59.9779 23.778 60.6739 24.45C61.3699 25.11 61.7179 26.034 61.7179 27.222V31.2C61.7179 31.392 61.7539 31.536 61.8259 31.632C61.9099 31.716 62.0419 31.764 62.2219 31.776V33C62.0659 33.024 61.9279 33.042 61.8079 33.054C61.6999 33.066 61.6099 33.072 61.5379 33.072C61.1659 33.072 60.8839 32.97 60.6919 32.766C60.5119 32.562 60.4099 32.346 60.3859 32.118L60.3499 31.524C59.9419 32.052 59.4079 32.46 58.7479 32.748C58.0879 33.036 57.4339 33.18 56.7859 33.18C56.1619 33.18 55.6039 33.054 55.1119 32.802C54.6199 32.538 54.2359 32.19 53.9599 31.758C53.6839 31.314 53.5459 30.822 53.5459 30.282ZM59.6659 30.948C59.8099 30.78 59.9239 30.612 60.0079 30.444C60.0919 30.264 60.1339 30.114 60.1339 29.994V28.824C59.7619 28.68 59.3719 28.572 58.9639 28.5C58.5559 28.416 58.1539 28.374 57.7579 28.374C56.9539 28.374 56.2999 28.536 55.7959 28.86C55.3039 29.172 55.0579 29.604 55.0579 30.156C55.0579 30.456 55.1359 30.75 55.2919 31.038C55.4599 31.314 55.6999 31.542 56.0119 31.722C56.3359 31.902 56.7319 31.992 57.1999 31.992C57.6919 31.992 58.1599 31.896 58.6039 31.704C59.0479 31.5 59.4019 31.248 59.6659 30.948ZM69.2187 24.99C68.4267 25.002 67.7247 25.206 67.1127 25.602C66.5127 25.986 66.0867 26.52 65.8347 27.204V33H64.2507V23.604H65.7267V25.782C66.0507 25.134 66.4767 24.612 67.0047 24.216C67.5447 23.808 68.1087 23.58 68.6967 23.532C68.8167 23.532 68.9187 23.532 69.0027 23.532C69.0867 23.532 69.1587 23.538 69.2187 23.55V24.99ZM78.9437 33H77.3597V27.744C77.3597 26.748 77.2037 26.022 76.8917 25.566C76.5917 25.098 76.1297 24.864 75.5057 24.864C75.0737 24.864 74.6417 24.972 74.2097 25.188C73.7897 25.404 73.4117 25.698 73.0757 26.07C72.7517 26.43 72.5177 26.85 72.3737 27.33V33H70.7897V23.604H72.2297V25.62C72.4817 25.176 72.8057 24.792 73.2017 24.468C73.5977 24.144 74.0477 23.892 74.5517 23.712C75.0557 23.532 75.5837 23.442 76.1357 23.442C76.6757 23.442 77.1257 23.544 77.4857 23.748C77.8577 23.94 78.1457 24.216 78.3497 24.576C78.5657 24.924 78.7157 25.338 78.7997 25.818C78.8957 26.298 78.9437 26.82 78.9437 27.384V33ZM97.2636 33V23.244L93.0516 30.75H92.0616L87.8316 23.244V33H86.2116V20.22H87.9216L92.5476 28.518L97.1916 20.22H98.8836V33H97.2636ZM105.638 33.18C104.93 33.18 104.288 33.054 103.712 32.802C103.136 32.538 102.638 32.184 102.218 31.74C101.798 31.284 101.474 30.762 101.246 30.174C101.018 29.586 100.904 28.968 100.904 28.32C100.904 27.66 101.018 27.036 101.246 26.448C101.474 25.86 101.798 25.344 102.218 24.9C102.638 24.444 103.136 24.09 103.712 23.838C104.3 23.574 104.942 23.442 105.638 23.442C106.346 23.442 106.988 23.574 107.564 23.838C108.14 24.09 108.638 24.444 109.058 24.9C109.49 25.344 109.82 25.86 110.048 26.448C110.276 27.036 110.39 27.66 110.39 28.32C110.39 28.968 110.276 29.586 110.048 30.174C109.82 30.762 109.496 31.284 109.076 31.74C108.656 32.184 108.152 32.538 107.564 32.802C106.988 33.054 106.346 33.18 105.638 33.18ZM102.524 28.338C102.524 28.986 102.662 29.574 102.938 30.102C103.226 30.63 103.604 31.05 104.072 31.362C104.54 31.662 105.062 31.812 105.638 31.812C106.214 31.812 106.736 31.656 107.204 31.344C107.684 31.032 108.062 30.612 108.338 30.084C108.626 29.544 108.77 28.95 108.77 28.302C108.77 27.654 108.626 27.066 108.338 26.538C108.062 26.01 107.684 25.59 107.204 25.278C106.736 24.966 106.214 24.81 105.638 24.81C105.062 24.81 104.54 24.972 104.072 25.296C103.604 25.608 103.226 26.028 102.938 26.556C102.662 27.084 102.524 27.678 102.524 28.338ZM117.277 24.99C116.485 25.002 115.783 25.206 115.171 25.602C114.571 25.986 114.145 26.52 113.893 27.204V33H112.309V23.604H113.785V25.782C114.109 25.134 114.535 24.612 115.063 24.216C115.603 23.808 116.167 23.58 116.755 23.532C116.875 23.532 116.977 23.532 117.061 23.532C117.145 23.532 117.217 23.538 117.277 23.55V24.99ZM122.778 33.18C122.07 33.18 121.422 33.054 120.834 32.802C120.258 32.538 119.754 32.184 119.322 31.74C118.902 31.284 118.572 30.762 118.332 30.174C118.104 29.586 117.99 28.962 117.99 28.302C117.99 27.414 118.194 26.604 118.602 25.872C119.01 25.14 119.574 24.552 120.294 24.108C121.026 23.664 121.86 23.442 122.796 23.442C123.744 23.442 124.566 23.67 125.262 24.126C125.97 24.57 126.516 25.158 126.9 25.89C127.296 26.61 127.494 27.39 127.494 28.23C127.494 28.35 127.488 28.47 127.476 28.59C127.476 28.698 127.47 28.782 127.458 28.842H119.664C119.712 29.454 119.88 30 120.168 30.48C120.468 30.948 120.852 31.32 121.32 31.596C121.788 31.86 122.292 31.992 122.832 31.992C123.408 31.992 123.948 31.848 124.452 31.56C124.968 31.272 125.322 30.894 125.514 30.426L126.882 30.804C126.678 31.26 126.372 31.668 125.964 32.028C125.568 32.388 125.094 32.67 124.542 32.874C124.002 33.078 123.414 33.18 122.778 33.18ZM119.61 27.744H126.018C125.97 27.132 125.796 26.592 125.496 26.124C125.196 25.656 124.812 25.29 124.344 25.026C123.876 24.762 123.36 24.63 122.796 24.63C122.244 24.63 121.734 24.762 121.266 25.026C120.798 25.29 120.414 25.656 120.114 26.124C119.826 26.592 119.658 27.132 119.61 27.744Z" fill="#040404"/>
</svg>
