<svg width="81" height="79" viewBox="0 0 81 79" fill="none" xmlns="http://www.w3.org/2000/svg">
<path d="M15.1875 0C14.2594 0 13.5 0.77282 13.5 1.71738V7.71143L2.39612 15.7818C1.95737 16.0909 1.6875 16.6242 1.6875 17.1738V24.0433C1.6875 24.9878 2.44688 25.7607 3.375 25.7607H40.5C41.4281 25.7607 42.1875 24.9878 42.1875 24.0433V17.1738C42.1875 16.6242 41.9176 16.0909 41.4789 15.7818L30.375 7.71143V1.71738C30.375 0.77282 29.6156 0 28.6875 0H15.1875ZM10.1052 34.3475C9.17879 34.3475 8.42102 35.1204 8.42102 36.0649V37.7823H1.6842C0.757767 37.7823 0 38.5551 0 39.4997V77.282C0 78.2265 0.757767 78.9993 1.6842 78.9993H41.8645C42.9259 78.9993 43.7827 78.1224 43.7827 77.0405V39.6406C43.7827 38.6136 42.9675 37.7823 41.9601 37.7823H35.3617V36.2964C35.3617 35.2196 34.5064 34.3475 33.4501 34.3475H10.1052ZM49.0825 37.7823C48.9695 37.7789 48.248 37.7736 47.7147 38.3592C47.3013 38.8126 47.2584 39.3451 47.25 39.4997V51.5213H81V39.4997C81 38.5551 80.2422 37.7823 79.3158 37.7823H75.7793H60.6248H49.0825ZM8.42102 44.6518H35.365C36.2914 44.6518 37.0492 45.4246 37.0492 46.3692V70.4125C37.0492 71.357 36.2914 72.1298 35.365 72.1298H8.42102C7.49458 72.1298 6.73682 71.357 6.73682 70.4125V46.3692C6.73682 45.4246 7.49458 44.6518 8.42102 44.6518ZM53.8879 44.6518H74.0951C75.0215 44.6518 75.7793 45.4246 75.7793 46.3692C75.7793 47.3137 75.0215 48.0866 74.0951 48.0866H53.8879C52.9615 48.0866 52.2037 47.3137 52.2037 46.3692C52.2037 45.4246 52.9615 44.6518 53.8879 44.6518ZM10.1052 48.0866V68.6951H33.6808V48.0866H10.1052ZM47.25 54.9561V77.282C47.2534 77.4245 47.2813 77.9738 47.7015 78.4392C48.2213 79.0128 48.9251 79.0028 49.0331 78.9993H79.3158C80.2422 78.9993 81 78.2265 81 77.282V54.9561H47.25ZM53.8879 60.1082C54.8144 60.1082 55.5721 60.881 55.5721 61.8256V70.4125C55.5721 71.357 54.8144 72.1298 53.8879 72.1298C52.9615 72.1298 52.2037 71.357 52.2037 70.4125V61.8256C52.2037 60.881 52.9615 60.1082 53.8879 60.1082Z" fill="#8A1818"/>
</svg>
