<svg width="40" height="56" viewBox="0 0 40 56" fill="none" xmlns="http://www.w3.org/2000/svg">
<path d="M20 0.5C8.955 0.5 0 9.73484 0 21.125C0 25.6101 1.42583 29.7256 3.79583 33.0961C3.83833 33.1769 3.845 33.2671 3.89333 33.3445L17.2267 53.9695C17.845 54.9259 18.8867 55.5 20 55.5C21.1133 55.5 22.155 54.9259 22.7733 53.9695L36.1067 33.3445C36.1558 33.2671 36.1617 33.1769 36.2042 33.0961C38.5742 29.7256 40 25.6101 40 21.125C40 9.73484 31.045 0.5 20 0.5ZM20 28C16.3183 28 13.3333 24.9217 13.3333 21.125C13.3333 17.3283 16.3183 14.25 20 14.25C23.6817 14.25 26.6667 17.3283 26.6667 21.125C26.6667 24.9217 23.6817 28 20 28Z" fill="#8A1818"/>
</svg>
