<svg width="69" height="65" viewBox="0 0 69 65" fill="none" xmlns="http://www.w3.org/2000/svg">
<path fill-rule="evenodd" clip-rule="evenodd" d="M62.0624 29.5775L58.1983 21.845L69 17.2652L68.2017 26.0434L62.0624 29.5775ZM59.3879 33.3629L39.8762 31.4905L13.7303 61.0521C7.25568 68.9471 -4.32038 58.4015 1.66724 51.2766L24.7555 27.6727L12.1496 13.7554L8.33345 13.5528L3.34377 4.55543L8.59691 0L16.5165 6.363L16.2132 10.0025L28.6834 23.6201L34.0483 18.1325L40.491 1.5563L60.8089 0.0891636L63.7389 5.35789L50.4783 12.2235L59.3879 33.3629ZM11.4869 51.8764C7.49519 48.4882 2.25003 54.4621 6.48128 58.0692C10.3373 61.3601 15.4308 55.2484 11.479 51.8764H11.4869ZM47.1173 36.3539C47.1173 36.3539 56.5617 46.2105 62.0464 51.5198C68.8164 58.0854 55.1886 69.6766 48.8896 62.9894C44.0995 57.9395 34.5193 45.1567 34.5193 45.1567L41.5847 36.5566L47.1173 36.3539Z" fill="#8A1818"/>
</svg>
