<svg width="116" height="61" viewBox="0 0 116 61" fill="none" xmlns="http://www.w3.org/2000/svg">
<path d="M29 25.4167V35.5833H87V25.4167C87 19.8091 92.2019 15.25 98.6 15.25H104.4C104.4 6.83073 96.6063 0 87 0H29C19.3938 0 11.6 6.83073 11.6 15.25H17.4C23.7981 15.25 29 19.8091 29 25.4167ZM104.4 20.3333H98.6C95.3919 20.3333 92.8 22.605 92.8 25.4167V40.6667H23.2V25.4167C23.2 22.605 20.6081 20.3333 17.4 20.3333H11.6C5.20188 20.3333 0 24.8925 0 30.5C0 34.249 2.35625 37.4896 5.8 39.2529V58.4583C5.8 59.8563 7.105 61 8.7 61H20.3C21.895 61 23.2 59.8563 23.2 58.4583V55.9167H92.8V58.4583C92.8 59.8563 94.105 61 95.7 61H107.3C108.895 61 110.2 59.8563 110.2 58.4583V39.2529C113.644 37.4896 116 34.249 116 30.5C116 24.8925 110.798 20.3333 104.4 20.3333Z" fill="#8A1818"/>
</svg>
